PathFileType	4	(X/Y/Z)	E:\3-PhD\Data\MocapData\ElaboratedData\009\pre\dynamicElaborations\RunN1\RunN1.trc
DataRate	CameraRate	NumFrames	NumMarkers	Units	OrigDataRate	DataStartFrame
200	200	6	54	mm	200	557
Frame#	Time	FHD			LBHD			RBHD			C7			T10			CLAV			LSHO			LUUPA			LMUPA			LDUPA			LLEP			LMEP			LRAD			LUL			LRFIN			RSHO			RUPA1			RMUPA			RDUPA			RLEP			RMEP			RRAD			RUL			RUFIN			RASI			USACR			LSACR			RSACR			LTHI1			LTHI2			LTHI3			LTHI4			LTIB1			LTIB2			LTIB3			LTIB4			LLMAL			LHEE			LMT1			LMT2			RTHI			RTHI2			RTHI3			RTHI4			RLFC			RTIB1			RTIB2			RTIB3			RTIB4			RLMAL			RHEE			RMT1			RMT2			RMT5		
		X1	Y1	Z1	X2	Y2	Z2	X3	Y3	Z3	X4	Y4	Z4	X5	Y5	Z5	X6	Y6	Z6	X7	Y7	Z7	X8	Y8	Z8	X9	Y9	Z9	X10	Y10	Z10	X11	Y11	Z11	X12	Y12	Z12	X13	Y13	Z13	X14	Y14	Z14	X15	Y15	Z15	X16	Y16	Z16	X17	Y17	Z17	X18	Y18	Z18	X19	Y19	Z19	X20	Y20	Z20	X21	Y21	Z21	X22	Y22	Z22	X23	Y23	Z23	X24	Y24	Z24	X25	Y25	Z25	X26	Y26	Z26	X27	Y27	Z27	X28	Y28	Z28	X29	Y29	Z29	X30	Y30	Z30	X31	Y31	Z31	X32	Y32	Z32	X33	Y33	Z33	X34	Y34	Z34	X35	Y35	Z35	X36	Y36	Z36	X37	Y37	Z37	X38	Y38	Z38	X39	Y39	Z39	X40	Y40	Z40	X41	Y41	Z41	X42	Y42	Z42	X43	Y43	Z43	X44	Y44	Z44	X45	Y45	Z45	X46	Y46	Z46	X47	Y47	Z47	X48	Y48	Z48	X49	Y49	Z49	X50	Y50	Z50	X51	Y51	Z51	X52	Y52	Z52	X53	Y53	Z53	X54	Y54	Z54	

599	2.990000	-1864.378306	1490.666081	390.067962	-2028.275613	1553.493194	293.252230	-2000.741956	1532.147181	415.655277	-2129.706248	1426.355645	341.437191	-2319.037479	1129.592880	397.971083	-2029.009425	1286.811460	336.889528	-2054.553990	1365.951249	200.335083	-2087.258703	1197.113743	99.206965	-2046.566464	1172.972973	109.781506	-2078.579570	1130.550214	81.127209	-2067.230356	1007.216608	68.281939	-2086.853582	978.671996	132.440204	-1846.358459	1037.647984	190.819121	-1821.792756	974.651399	159.577941	-1785.510351	1070.820051	169.133370	-2055.161928	1382.870852	499.590824	-2195.042860	1320.233528	608.812426	-2198.621225	1272.662338	612.840170	-2251.586721	1293.292700	634.875829	-2361.388897	1226.125443	677.354262	-2395.451103	1225.530988	616.237907	-2366.534617	963.086178	673.758440	-2422.291012	979.017470	718.546824	-2341.077912	914.640412	735.391040	-2200.541971	898.864528	448.025130	-2361.804368	1054.245449	420.811315	-2384.248125	1027.822438	395.451734	-2361.948022	1020.194309	449.981367	-2383.808207	705.589249	181.126236	-2360.427441	624.463899	173.414682	-2312.876190	621.110162	172.799422	-2391.792142	574.142009	190.392607	-2429.277874	291.735528	252.053360	-2508.819200	290.540944	214.182112	-2478.804334	266.514600	234.158036	-2521.724412	206.132580	276.587240	-2659.956037	123.965554	288.202630	-2744.760248	107.375438	342.944841	-2527.767767	56.818522	345.424825	-2533.625407	54.837866	300.340104	-2159.437363	715.100563	538.327206	-2099.430029	690.190497	531.534237	-2073.748587	706.431443	514.628751	-2082.308845	607.492005	519.674554	-2031.411397	531.033285	495.118588	-2200.421592	433.466964	437.705439	-2290.087890	476.687833	477.062194	-2281.313342	436.936994	455.209260	-2325.334251	421.422167	422.551848	-2425.889969	456.119955	456.397420	-2482.409291	519.516988	407.809206	-2458.469220	296.358042	379.312973	-2454.371544	293.736130	421.186372	-2485.492857	327.921052	474.115611	
600	2.995000	-1835.538038	1492.406562	391.284925	-1999.417824	1555.562564	294.707722	-1971.783912	1534.139223	417.018229	-2101.163697	1427.931122	342.259218	-2289.568395	1130.381798	395.824736	-1999.840120	1288.966908	338.731528	-2024.160015	1369.935961	202.838469	-2052.479179	1201.309064	100.798155	-2011.095612	1178.263304	111.193828	-2042.313611	1134.943701	82.905665	-2026.791919	1012.357691	69.832399	-2043.868771	982.871970	133.939782	-1808.735579	1056.681041	193.492577	-1780.241000	995.018500	163.035738	-1750.186583	1093.362781	171.158494	-2028.246048	1385.239884	500.827270	-2170.093772	1326.103973	608.681410	-2174.416446	1278.605480	612.968335	-2227.414464	1300.263530	633.980969	-2339.111092	1235.914275	675.340931	-2372.229815	1235.527904	613.887576	-2350.165436	973.029791	674.032700	-2406.192239	990.799983	717.966225	-2326.615595	924.674179	736.413794	-2170.397960	901.683604	447.603644	-2332.113018	1054.944791	418.831970	-2354.389578	1028.206372	393.636924	-2332.505645	1021.257624	448.357933	-2361.369373	706.729015	181.275418	-2341.847676	624.691593	173.414479	-2294.529427	619.155732	173.146867	-2375.715434	576.094453	189.928393	-2422.500793	294.194197	251.247287	-2502.381638	294.837238	214.128178	-2472.552803	270.022507	233.260518	-2516.292380	209.939370	275.620447	-2655.818350	129.670142	287.408851	-2740.482269	116.238714	342.074328	-2526.613131	56.059129	345.346773	-2532.952279	54.690816	300.363523	-2125.504563	721.861139	537.385696	-2064.552997	699.438150	530.062515	-2039.593102	717.055425	513.274291	-2044.214404	617.518320	516.978347	-1990.018020	543.183413	492.308409	-2152.987743	434.757042	436.047375	-2244.978401	472.166371	475.955756	-2233.764824	432.999273	454.142307	-2276.852802	414.617606	421.750976	-2379.653322	442.063600	456.295035	-2440.916025	501.375703	408.276146	-2400.083716	280.882426	378.843406	-2395.739744	278.456696	420.800738	-2429.200190	309.908853	474.036382	
601	3.000000	-1806.485826	1494.318189	392.613866	-1970.355146	1557.905187	296.364722	-1942.575080	1536.358609	418.559927	-2072.400583	1429.786221	343.218687	-2259.900151	1131.361476	393.434508	-1970.515232	1291.472928	340.689753	-1993.733775	1374.225805	205.523160	-2017.960572	1206.063951	102.437585	-1975.981968	1184.030094	112.656284	-2006.450629	1139.926830	84.701732	-1987.273958	1018.193185	71.220183	-2001.545154	987.802926	135.485739	-1772.744191	1075.763797	195.898055	-1740.575874	1015.568825	166.320815	-1716.609126	1115.621842	172.881462	-2001.110656	1387.744923	502.123234	-2144.716309	1331.887791	608.548578	-2149.822099	1284.479946	612.904403	-2202.754391	1307.069107	633.059374	-2316.354363	1245.553599	673.067677	-2348.444731	1245.299461	611.243423	-2332.812052	982.952933	674.061063	-2389.059926	1002.453940	717.110160	-2311.065143	934.758332	737.168853	-2140.075863	904.867453	447.584065	-2302.165502	1055.807855	416.388067	-2324.232091	1028.790031	391.302901	-2303.016900	1022.518312	446.216961	-2338.377536	708.352866	181.403499	-2322.908058	625.510727	173.541253	-2275.911998	617.775060	173.721210	-2359.304916	578.824711	189.495613	-2415.209119	297.706911	250.309453	-2495.431731	300.130089	214.062942	-2465.745476	274.542633	232.307002	-2510.116556	214.585143	274.444393	-2650.772700	135.911135	286.425358	-2735.083192	125.901108	341.025834	-2525.301470	55.234895	345.244967	-2532.115363	54.546051	300.361799	-2091.892250	728.644262	536.560184	-2030.186025	708.541112	528.680315	-2005.954931	727.437491	512.010684	-2006.961249	627.467012	514.330948	-1949.809824	555.308724	489.495876	-2105.796987	436.031670	434.452186	-2199.873112	467.351522	474.892411	-2186.158534	428.903973	453.096829	-2228.087735	407.608612	420.991232	-2332.731987	427.424329	456.153847	-2398.449005	482.213608	408.686710	-2340.645312	265.765400	378.139782	-2336.062586	263.512242	420.216248	-2371.757064	292.000607	473.805071	
602	3.005000	-1777.254238	1496.352435	394.043489	-1941.124649	1560.466270	298.213541	-1913.150480	1538.750694	420.269671	-2043.437474	1431.875948	344.307264	-2230.074268	1132.500914	390.801431	-1941.066187	1294.279267	342.760777	-1963.324928	1378.721455	208.365733	-1983.714212	1211.268187	104.108650	-1941.234461	1190.164699	114.174255	-1970.952856	1145.386898	86.481440	-1948.644058	1024.548490	72.404932	-1959.933321	993.279635	137.097581	-1738.308782	1094.676074	198.057634	-1702.713759	1036.065764	169.427630	-1684.642937	1137.387825	174.369044	-1973.758172	1390.348665	503.479228	-2118.952629	1337.552395	608.426534	-2124.868258	1290.254938	612.696746	-2177.670036	1313.690423	632.105765	-2293.160447	1254.989611	670.554296	-2324.112012	1254.762218	608.303829	-2314.488985	992.772119	673.893991	-2370.923986	1013.891861	716.036291	-2294.436650	944.813815	737.709063	-2109.623027	908.295840	447.897428	-2271.974735	1056.804159	413.511186	-2293.800197	1029.547850	388.486796	-2273.477751	1023.929538	443.566946	-2314.825636	710.477221	181.543920	-2303.523428	626.962957	173.833847	-2256.936482	617.063096	174.538691	-2342.402039	582.335967	189.175722	-2407.237081	302.268681	249.256240	-2487.801173	306.403750	213.970638	-2458.218332	280.064349	231.314487	-2503.042343	220.051043	273.039633	-2644.675593	142.653967	285.195884	-2728.392302	136.348820	339.747878	-2523.824661	54.406368	345.085655	-2531.077485	54.417915	300.296860	-2058.546295	735.390487	535.834326	-1996.258295	717.410440	527.382808	-1972.749381	737.473558	510.823301	-1970.494506	637.205705	511.763799	-1910.762850	567.211109	486.712074	-2058.836275	437.242620	432.930755	-2154.717808	462.237761	473.877733	-2138.466277	424.660576	452.092679	-2178.993661	400.444155	420.260664	-2285.011443	412.340962	455.953129	-2354.845662	462.197314	409.011606	-2280.169840	251.204550	377.230201	-2275.372850	249.094138	419.430922	-2313.139863	274.390561	473.386118	
603	3.010000	-1747.880595	1498.457036	395.561786	-1911.767919	1563.182721	300.239272	-1883.551274	1541.253987	422.132652	-2014.302839	1434.144356	345.510756	-2200.128522	1133.765251	387.942513	-1911.525377	1297.322868	344.939644	-1932.971031	1383.321676	211.332502	-1949.750989	1216.808927	105.784934	-1906.860893	1196.557854	115.740122	-1935.790917	1151.208901	88.210817	-1910.859745	1031.257722	73.350071	-1919.143855	999.127148	138.716139	-1705.339314	1113.218347	199.996085	-1666.554234	1056.293309	172.360999	-1654.143576	1158.478851	175.681647	-1946.196028	1393.015906	504.894882	-2092.847729	1343.082124	608.320346	-2099.587073	1295.916659	612.389445	-2152.222407	1320.125471	631.109948	-2269.567288	1264.177819	667.833517	-2299.252076	1263.839697	605.082472	-2295.207726	1002.408267	673.578480	-2351.813475	1025.029410	714.791651	-2276.741449	954.771644	738.089567	-2079.082931	911.851093	448.456289	-2241.565241	1057.904866	410.255912	-2263.131268	1030.451017	385.249030	-2243.879541	1025.439878	440.440422	-2290.702770	713.095930	181.714323	-2283.590192	629.063461	174.312464	-2237.493695	617.080719	175.602493	-2324.840262	586.593229	189.034365	-2398.428774	307.853040	248.103590	-2479.337994	313.619967	213.845642	-2449.818708	286.556268	230.292908	-2494.934828	226.301560	271.403516	-2637.390573	149.856269	283.674571	-2720.248614	147.556916	338.196942	-2522.164072	53.663972	344.835550	-2529.792584	54.343273	300.129217	-2025.426321	742.050222	535.180780	-1962.708460	725.973793	526.159738	-1939.899763	747.079002	509.697221	-1934.756971	646.620993	509.304589	-1872.828517	578.702565	483.992920	-2012.098291	438.345740	431.501709	-2109.464158	456.818032	472.915445	-2090.666415	420.272882	451.143557	-2129.541579	393.175892	419.547956	-2236.404921	396.958309	455.673959	-2309.982720	441.510503	409.231766	-2218.708344	237.376953	376.144998	-2213.736458	235.379728	418.446100	-2253.368012	257.254662	472.722899	
604	3.015000	-1718.404667	1500.580064	397.158288	-1882.328357	1565.985826	302.420816	-1853.822736	1543.803373	424.129479	-1985.031678	1436.526962	346.810932	-2170.094144	1135.115281	384.895189	-1881.923803	1300.530240	347.218478	-1902.696349	1387.928063	214.381426	-1916.078092	1222.573303	107.431784	-1872.865889	1203.100600	117.334829	-1900.944478	1157.276525	89.856838	-1873.874594	1038.168885	74.021671	-1879.341629	1005.186592	140.215018	-1673.736501	1131.211273	201.739087	-1631.987150	1076.052871	175.137646	-1624.964358	1178.737234	176.870993	-1918.433743	1395.712019	506.370824	-2066.445311	1348.473355	608.227227	-2074.008772	1301.462378	612.019003	-2126.463892	1326.383499	630.059280	-2245.606950	1273.080762	664.950780	-2273.890128	1272.464745	601.609740	-2274.977580	1011.786559	673.159525	-2331.756535	1035.785466	713.413934	-2257.995136	964.569584	738.367128	-2048.491280	915.426841	449.162487	-2210.974242	1059.083783	406.696709	-2232.273081	1031.469974	381.669896	-2214.214543	1027.000629	436.895958	-2265.996154	716.177435	181.911027	-2262.997420	631.795123	174.974427	-2217.464645	617.842957	176.906256	-2306.461884	591.520383	189.113862	-2388.643792	314.410713	246.880027	-2469.903753	321.715014	213.692654	-2440.408741	293.964299	229.254374	-2485.680944	233.286223	269.555724	-2628.798330	157.473116	281.831513	-2710.511523	159.491266	336.342073	-2520.283204	53.132390	344.465835	-2528.200855	54.388775	299.821975	-1992.509728	748.578201	534.563698	-1929.490104	734.170600	524.997340	-1907.343341	756.184545	508.617669	-1899.694605	655.616024	506.976998	-1835.937912	589.610756	481.380528	-1965.579334	439.298298	430.181509	-2064.069994	451.084354	472.011504	-2042.745336	415.740206	450.257274	-2079.722054	385.854419	418.846545	-2186.855899	381.420305	455.300895	-2263.777925	420.345934	409.338642	-2156.352619	224.434409	374.911556	-2151.250841	222.523558	417.267310	-2192.504437	240.757938	471.772030	
